HIERARCHY
ROOT Hips
{
  OFFSET -0.589095 22.1471 2.58842
  CHANNELS 6 Xposition Yposition Zposition Zrotation Xrotation Yrotation
  JOINT BN_Bip01_Pelvis
  {
    OFFSET -3.49357 -5.29363 -0.000213444
    CHANNELS 6 Xposition Yposition Zposition Zrotation Xrotation Yrotation
    JOINT BN_leg_R_01
    {
      OFFSET 10.8127 -7.82778 -6.29737
      CHANNELS 6 Xposition Yposition Zposition Zrotation Xrotation Yrotation
      JOINT BN_leg_R_02
      {
        OFFSET 8.91071 0 0
        CHANNELS 6 Xposition Yposition Zposition Zrotation Xrotation Yrotation
        JOINT BN_leg_R_03
        {
          OFFSET 15.6024 0 0
          CHANNELS 6 Xposition Yposition Zposition Zrotation Xrotation Yrotation
          JOINT BN_leg_R_04
          {
            OFFSET 9.68174 0 0
            CHANNELS 6 Xposition Yposition Zposition Zrotation Xrotation Yrotation
            JOINT BN_leg_R_05
            {
              OFFSET 10.6982 0 0
              CHANNELS 6 Xposition Yposition Zposition Zrotation Xrotation Yrotation
              JOINT BN_Leg_R_05Nub
              {
                OFFSET 11.1504 0 0
                CHANNELS 6 Xposition Yposition Zposition Zrotation Xrotation Yrotation
                End Site
                {
                  OFFSET 0 0 0
                }
              }
            }
          }
        }
      }
    }
    JOINT BN_leg_R_06
    {
      OFFSET 6.51511 -7.99898 -4.29089
      CHANNELS 6 Xposition Yposition Zposition Zrotation Xrotation Yrotation
      JOINT BN_Leg_R_07
      {
        OFFSET 9.03709 0 0
        CHANNELS 6 Xposition Yposition Zposition Zrotation Xrotation Yrotation
        JOINT BN_Leg_R_08
        {
          OFFSET 18.7638 0 0
          CHANNELS 6 Xposition Yposition Zposition Zrotation Xrotation Yrotation
          JOINT BN_Leg_R_09
          {
            OFFSET 10.9666 0 0
            CHANNELS 6 Xposition Yposition Zposition Zrotation Xrotation Yrotation
            JOINT BN_Leg_R_10
            {
              OFFSET 10.8726 0 0
              CHANNELS 6 Xposition Yposition Zposition Zrotation Xrotation Yrotation
              JOINT BN_Leg_R_10Nub
              {
                OFFSET 11.2648 0 0
                CHANNELS 6 Xposition Yposition Zposition Zrotation Xrotation Yrotation
                End Site
                {
                  OFFSET 0 0 0
                }
              }
            }
          }
        }
      }
    }
    JOINT BN_Leg_R_11
    {
      OFFSET 2.71429 -8.18693 -0.209972
      CHANNELS 6 Xposition Yposition Zposition Zrotation Xrotation Yrotation
      JOINT BN_Leg_R_12
      {
        OFFSET 9.8713 0 0
        CHANNELS 6 Xposition Yposition Zposition Zrotation Xrotation Yrotation
        JOINT BN_Leg_R_13
        {
          OFFSET 21.8657 0 0
          CHANNELS 6 Xposition Yposition Zposition Zrotation Xrotation Yrotation
          JOINT BN_Leg_R_14
          {
            OFFSET 11.0011 0 0
            CHANNELS 6 Xposition Yposition Zposition Zrotation Xrotation Yrotation
            JOINT BN_Leg_R_15
            {
              OFFSET 12.8798 0 0
              CHANNELS 6 Xposition Yposition Zposition Zrotation Xrotation Yrotation
              JOINT BN_Leg_R_15Nub
              {
                OFFSET 13.0642 0 0
                CHANNELS 6 Xposition Yposition Zposition Zrotation Xrotation Yrotation
                End Site
                {
                  OFFSET 0 0 0
                }
              }
            }
          }
        }
      }
    }
    JOINT BN_Leg_L_11
    {
      OFFSET 2.7143 8.18692 -0.209982
      CHANNELS 6 Xposition Yposition Zposition Zrotation Xrotation Yrotation
      JOINT BN_Leg_L_12
      {
        OFFSET 9.87129 0 0
        CHANNELS 6 Xposition Yposition Zposition Zrotation Xrotation Yrotation
        JOINT BN_Leg_L_13
        {
          OFFSET 21.8657 0 0
          CHANNELS 6 Xposition Yposition Zposition Zrotation Xrotation Yrotation
          JOINT BN_Leg_L_14
          {
            OFFSET 11.0011 0 0
            CHANNELS 6 Xposition Yposition Zposition Zrotation Xrotation Yrotation
            JOINT BN_Leg_L_15
            {
              OFFSET 12.8798 0 0
              CHANNELS 6 Xposition Yposition Zposition Zrotation Xrotation Yrotation
              JOINT BN_Leg_L_15Nub
              {
                OFFSET 13.0642 0 0
                CHANNELS 6 Xposition Yposition Zposition Zrotation Xrotation Yrotation
                End Site
                {
                  OFFSET 0 0 0
                }
              }
            }
          }
        }
      }
    }
    JOINT BN_leg_L_06
    {
      OFFSET 6.51511 7.99896 -4.29091
      CHANNELS 6 Xposition Yposition Zposition Zrotation Xrotation Yrotation
      JOINT BN_Leg_L_07
      {
        OFFSET 9.03709 0 0
        CHANNELS 6 Xposition Yposition Zposition Zrotation Xrotation Yrotation
        JOINT BN_Leg_L_08
        {
          OFFSET 18.7638 0 0
          CHANNELS 6 Xposition Yposition Zposition Zrotation Xrotation Yrotation
          JOINT BN_Leg_L_09
          {
            OFFSET 10.9666 0 0
            CHANNELS 6 Xposition Yposition Zposition Zrotation Xrotation Yrotation
            JOINT BN_Leg_L_10
            {
              OFFSET 10.8726 0 0
              CHANNELS 6 Xposition Yposition Zposition Zrotation Xrotation Yrotation
              JOINT BN_Leg_L_10Nub
              {
                OFFSET 11.2649 0 0
                CHANNELS 6 Xposition Yposition Zposition Zrotation Xrotation Yrotation
                End Site
                {
                  OFFSET 0 0 0
                }
              }
            }
          }
        }
      }
    }
    JOINT BN_leg_L_01
    {
      OFFSET 10.8127 7.82776 -6.29737
      CHANNELS 6 Xposition Yposition Zposition Zrotation Xrotation Yrotation
      JOINT BN_leg_L_02
      {
        OFFSET 8.91072 0 0
        CHANNELS 6 Xposition Yposition Zposition Zrotation Xrotation Yrotation
        JOINT BN_leg_L_03
        {
          OFFSET 15.6024 0 0
          CHANNELS 6 Xposition Yposition Zposition Zrotation Xrotation Yrotation
          JOINT BN_leg_L_04
          {
            OFFSET 9.68174 0 0
            CHANNELS 6 Xposition Yposition Zposition Zrotation Xrotation Yrotation
            JOINT BN_leg_L_05
            {
              OFFSET 10.6982 0 0
              CHANNELS 6 Xposition Yposition Zposition Zrotation Xrotation Yrotation
              JOINT BN_Leg_L_05Nub
              {
                OFFSET 11.1504 0 0
                CHANNELS 6 Xposition Yposition Zposition Zrotation Xrotation Yrotation
                End Site
                {
                  OFFSET 0 0 0
                }
              }
            }
          }
        }
      }
    }
    JOINT BN_Eye_L_01
    {
      OFFSET 28.5502 2.54627 -3.93739
      CHANNELS 6 Xposition Yposition Zposition Zrotation Xrotation Yrotation
      JOINT BN_Eye_L_02
      {
        OFFSET 2.30267 0 0
        CHANNELS 6 Xposition Yposition Zposition Zrotation Xrotation Yrotation
        JOINT BN_Eye_L_03
        {
          OFFSET 5.31894 0 0
          CHANNELS 6 Xposition Yposition Zposition Zrotation Xrotation Yrotation
          JOINT BN_Eye_L_04
          {
            OFFSET 9.71244 0 0
            CHANNELS 6 Xposition Yposition Zposition Zrotation Xrotation Yrotation
            End Site
            {
              OFFSET 0 0 0
            }
          }
        }
      }
    }
    JOINT BN_Eye_R_01
    {
      OFFSET 28.5502 -2.54612 -3.93738
      CHANNELS 6 Xposition Yposition Zposition Zrotation Xrotation Yrotation
      JOINT BN_Eye_R_02
      {
        OFFSET 2.30267 0 0
        CHANNELS 6 Xposition Yposition Zposition Zrotation Xrotation Yrotation
        JOINT BN_Eye_R_03
        {
          OFFSET 5.31896 0 0
          CHANNELS 6 Xposition Yposition Zposition Zrotation Xrotation Yrotation
          JOINT BN_Eye_R_04
          {
            OFFSET 9.71244 0 0
            CHANNELS 6 Xposition Yposition Zposition Zrotation Xrotation Yrotation
            End Site
            {
              OFFSET 0 0 0
            }
          }
        }
      }
    }
    JOINT BN_Arm_L_01
    {
      OFFSET 15.9737 8.03546 -8.36195
      CHANNELS 6 Xposition Yposition Zposition Zrotation Xrotation Yrotation
      JOINT BN_Arm_L_02
      {
        OFFSET 16.8869 0 0
        CHANNELS 6 Xposition Yposition Zposition Zrotation Xrotation Yrotation
        JOINT BN_Arm_L_03
        {
          OFFSET 8.42975 0 0
          CHANNELS 6 Xposition Yposition Zposition Zrotation Xrotation Yrotation
          JOINT BN_Arm_L_04
          {
            OFFSET 7.53864 -0.0312023 2.09083
            CHANNELS 6 Xposition Yposition Zposition Zrotation Xrotation Yrotation
            End Site
            {
              OFFSET 0 0 0
            }
          }
        }
      }
    }
    JOINT BN_Arm_R_01
    {
      OFFSET 14.7806 -6.70232 -9.44366
      CHANNELS 6 Xposition Yposition Zposition Zrotation Xrotation Yrotation
      JOINT BN_Arm_R_02
      {
        OFFSET 19.9827 0 0
        CHANNELS 6 Xposition Yposition Zposition Zrotation Xrotation Yrotation
        JOINT BN_Arm_R_03
        {
          OFFSET 17.4553 0 0
          CHANNELS 6 Xposition Yposition Zposition Zrotation Xrotation Yrotation
          JOINT BN_Arm_R_04
          {
            OFFSET 13.3834 -2.22657 7.3982
            CHANNELS 6 Xposition Yposition Zposition Zrotation Xrotation Yrotation
            End Site
            {
              OFFSET 0 0 0
            }
          }
        }
      }
    }
  }
}
MOTION
Frames:	4
Frame Time:	0.0333333
-12.9273 19.3629 0.217673 0.000617077 -0.00231363 29.996 -3.49325 -5.29384 1.77636e-015 146.714 -86.084 105.395 10.8127 -7.82778 -6.29737 -103.322 47.7779 15.9089 8.91072 1.90735e-006 -4.44089e-016 76.5839 0.79499 1.95807 15.6024 4.76837e-007 -4.76837e-007 -49.3609 -1.95042 8.27836 9.68174 -1.90735e-006 -1.90735e-006 -45.785 -1.8424 -16.81 10.6982 2.34479e-013 -9.53674e-007 -65.0147 4.10985 -3.50638 11.1504 3.8147e-006 -2.38419e-006 -2.79937e-007 3.59134e-006 6.73636e-009 6.5151 -7.99897 -4.2909 -152.895 39.1047 -5.06441 9.0371 1.24345e-014 0 76.2348 -1.88751 -2.74036 18.7638 4.76837e-007 8.88178e-015 -61.6869 11.966 23.9485 10.9666 3.55271e-015 4.76837e-007 -27.8285 -0.508831 -1.42798 10.8726 -7.10543e-015 7.10543e-015 -26.0937 -0.0151591 -2.64585 11.2648 7.10543e-015 9.53674e-007 -6.12286e-007 1.88664e-006 1.52381e-006 2.71428 -8.18693 -0.209972 -171.018 47.7128 -7.69684 9.87129 -7.10543e-015 -7.10543e-015 90.0204 1.91765 -1.10163 21.8657 -3.8147e-006 2.86102e-006 -64.5794 23.0937 35.5776 11.0012 0 -9.53674e-007 -30.5427 -0.399358 -1.11324 12.8798 3.81469e-006 -7.62939e-006 -42.2637 0.0155152 -0.0105488 13.0642 -3.81469e-006 -9.53674e-007 5.61395e-007 9.30676e-006 2.39852e-008 2.7143 8.18693 -0.20998 128.107 -30.5016 -1.18511 9.87129 3.55271e-015 9.53674e-007 -93.2154 -1.90461 -0.629953 21.8657 -2.86102e-006 -9.53674e-007 59.4048 -6.97032 17.3084 11.0011 -3.8147e-006 5.72205e-006 19.4802 0.240915 -0.81153 12.8798 1.42109e-014 1.42109e-014 28.909 0.0248047 0.0570504 13.0642 3.8147e-006 -1.06581e-014 -1.05272e-005 9.63344e-006 -1.38985e-006 6.51512 7.99896 -4.2909 126.453 -25.6248 15.8498 9.03709 9.53674e-007 -9.53674e-007 -101.301 2.37947 -2.91674 18.7638 -7.10543e-015 -1.90735e-006 86.03 -1.69642 2.74029 10.9666 7.62939e-006 9.53675e-007 21.6384 0.570349 -1.00268 10.8726 -3.81469e-006 -2.98428e-013 19.9901 0.0140708 -2.19717 11.2648 3.81469e-006 9.53675e-007 4.71347e-007 9.90819e-007 -1.35481e-007 10.8127 7.82777 -6.29737 113.078 -13.5973 69.8901 8.91072 3.55271e-015 5.32907e-015 -99.0629 -1.82428 1.73108 15.6024 1.06581e-014 1.77636e-015 85.6568 0.456953 4.99545 9.68174 -3.8147e-006 -4.56524e-013 22.6732 -0.019093 -11.3571 10.6982 -3.8147e-006 1.77636e-015 37.432 -4.11732 -0.27084 11.1504 0 -1.90735e-006 7.64333e-007 9.35755e-006 -3.13889e-007 28.5502 2.54628 -3.93738 90.6285 -40.2064 55.5559 2.30267 -1.06581e-014 3.55271e-015 -36.7123 -0.210747 6.21187 5.31894 0 6.30607e-014 -29.0714 -0.352558 3.54731 9.71243 -9.53674e-007 3.57628e-007 -11.4529 -1.17506 8.39954 28.5502 -2.54612 -3.93738 90.5495 -39.6797 129.214 2.30268 -3.8147e-006 0 -33.8321 -4.62822 2.96413 5.31894 1.90735e-006 -4.76837e-007 -32.5912 5.01368 12.1121 9.71243 -7.15256e-007 -7.15256e-007 -9.8484 1.40107 12.5437 15.9737 8.03546 -8.36195 118.96 46.933 -57.6036 16.8869 3.33786e-006 3.33786e-006 -95.553 -6.94282 -32.8379 8.42976 -3.8147e-006 -9.53675e-007 -83.1906 -2.97183 9.92493 7.53864 -0.0312118 2.09083 -12.3294 -1.64413 21.3057 14.7806 -6.70232 -9.44365 -45.8798 -34.2443 1.66243 19.9827 0 2.86102e-006 65.1036 -1.28741 1.89646 17.4553 -5.72205e-006 -2.86102e-006 67.7049 10.5551 7.90626 13.3835 -2.22654 7.3982 8.79978 1.66407 15.9096 
-12.9273 20.02 0.217673 0.000617077 -0.00231363 29.996 -3.49325 -5.29384 8.88178e-016 146.816 -86.1711 105.717 10.8127 -7.82778 -6.29737 -104.324 45.5609 19.8746 8.91072 1.90735e-006 -1.77636e-015 74.0876 0.708924 1.99084 15.6024 4.76837e-007 -4.76837e-007 -43.9569 -1.87424 8.74745 9.68174 -1.90735e-006 -1.90735e-006 -45.0467 -1.78875 -16.6477 10.6982 2.27374e-013 -9.53674e-007 -64.1373 4.10828 -3.41551 11.1504 3.8147e-006 -2.38419e-006 -2.79937e-007 3.59134e-006 6.73637e-009 6.5151 -7.99897 -4.2909 -153.032 39.5717 -6.27584 9.0371 7.10543e-015 0 75.3967 -1.8624 -2.77162 18.7638 4.76837e-007 7.10543e-015 -54.18 12.0799 20.1469 10.9666 -1.42109e-014 4.76837e-007 -32.1316 -0.302442 -1.61786 10.8726 0 -1.77636e-015 -30.3565 -0.0136959 -2.92806 11.2648 -2.13163e-014 9.53674e-007 -6.12286e-007 1.88664e-006 1.52381e-006 2.71428 -8.18693 -0.209972 -170.147 48.8788 -10.0684 9.87129 -3.55271e-015 -7.10543e-015 88.4771 1.94661 -1.0496 21.8657 -3.8147e-006 2.86102e-006 -66.5389 21.3429 34.3712 11.0012 -2.13163e-014 -9.53674e-007 -29.019 -0.391831 -1.0799 12.8798 3.81469e-006 -7.62939e-006 -40.4385 0.00792341 -0.00253271 13.0642 -3.81469e-006 -9.53674e-007 5.61395e-007 9.30677e-006 2.39852e-008 2.7143 8.18693 -0.20998 130.875 -28.8124 1.81216 9.87129 -3.55271e-015 9.53674e-007 -98.6722 -1.82529 -0.616255 21.8657 -2.86102e-006 -9.53674e-007 60.2655 -8.33918 17.5875 11.0011 -3.8147e-006 5.72205e-006 22.0634 0.194044 -0.846351 12.8798 7.10543e-015 2.13163e-014 32.0521 0.0163369 0.0371416 13.0642 3.8147e-006 -3.55271e-015 -1.05272e-005 9.63344e-006 -1.38985e-006 6.51512 7.99896 -4.2909 124.798 -25.8168 15.3604 9.03709 9.53674e-007 -9.53674e-007 -101.619 2.38669 -2.90532 18.7638 0 -1.90735e-006 86.0117 -3.92003 7.5483 10.9666 7.62939e-006 9.53675e-007 24.4537 0.542691 -1.19549 10.8726 -3.81469e-006 -2.07834e-013 22.7618 0.0157729 -2.40499 11.2648 3.81469e-006 9.53675e-007 -9.54656e-006 9.9082e-007 -1.35481e-007 10.8127 7.82777 -6.29737 118.093 -8.67434 71.1879 8.91072 0 3.55271e-015 -103.313 -2.05533 1.66015 15.6024 -1.77636e-015 3.55271e-015 82.3332 2.13266 2.72209 9.68174 -3.8147e-006 -4.52971e-013 24.3514 0.123201 -11.7884 10.6982 -3.8147e-006 0 39.4674 -4.11554 -0.525916 11.1504 0 -1.90735e-006 7.64333e-007 9.35755e-006 -3.13889e-007 28.5502 2.54628 -3.93738 90.2644 -40.1569 54.9615 2.30267 3.55271e-015 8.88178e-016 -36.709 -0.766445 6.17065 5.31894 0 5.86198e-014 -28.6993 -1.21034 1.55875 9.71243 -9.53674e-007 3.57628e-007 -11.6812 -0.919703 8.975 28.5502 -2.54612 -3.93738 90.3695 -39.5007 128.663 2.30268 -3.8147e-006 -2.66454e-015 -34.0688 -4.43584 2.55988 5.31894 1.90735e-006 -4.76837e-007 -33.0937 4.82672 11.6757 9.71243 -7.15256e-007 -7.15256e-007 -10.4201 1.26698 12.174 15.9737 8.03546 -8.36195 119.05 46.8946 -57.597 16.8869 3.33786e-006 3.33786e-006 -95.4844 -7.00208 -32.715 8.42976 -3.8147e-006 -9.53675e-007 -83.1733 -2.87858 9.94523 7.53864 -0.0312118 2.09083 -12.3235 -1.68793 21.5062 14.7806 -6.70232 -9.44365 -45.5789 -34.2595 0.710342 19.9827 8.88178e-016 2.86102e-006 64.6695 -0.831956 1.60268 17.4553 -5.72205e-006 -2.86102e-006 66.9829 10.4784 7.73181 13.3835 -2.22654 7.3982 8.79984 1.6638 15.906 
-12.9273 20.7197 0.217673 0.000617077 -0.00231363 29.996 -3.49325 -5.29384 1.77636e-015 147.252 -86.3929 106.715 10.8127 -7.82778 -6.29737 -106.28 43.3089 23.8423 8.91072 1.90735e-006 -6.21725e-015 72.1955 0.642786 2.01316 15.6024 4.76837e-007 -4.76837e-007 -40.8997 -1.24553 9.31556 9.68174 -1.90735e-006 -1.90735e-006 -42.9049 -1.63682 -16.1842 10.6982 2.27374e-013 -9.53674e-007 -61.5969 4.10951 -3.15642 11.1504 3.8147e-006 -2.38419e-006 -2.79937e-007 3.59134e-006 6.73637e-009 6.5151 -7.99897 -4.2909 -152.595 40.2114 -7.6845 9.0371 1.42109e-014 -3.55271e-015 74.4588 -1.82798 -2.80485 18.7638 4.76837e-007 3.55271e-015 -52.0289 9.97715 16.3876 10.9666 -1.06581e-014 4.76837e-007 -31.8508 -0.316492 -1.60652 10.8726 1.42109e-014 1.06581e-014 -30.0801 -0.0152202 -2.90859 11.2648 -2.84217e-014 9.53674e-007 -6.12286e-007 1.88664e-006 1.52381e-006 2.71428 -8.18693 -0.209972 -168.301 50.3007 -13.7179 9.87129 -7.10543e-015 0 85.9145 1.99157 -0.961532 21.8657 -3.8147e-006 2.86102e-006 -69.6609 18.6391 33.2337 11.0012 -7.10542e-015 -9.53674e-007 -26.1087 -0.372748 -1.00906 12.8798 3.81469e-006 -7.62939e-006 -36.9369 -0.00314915 0.0114905 13.0642 -3.81469e-006 -9.53674e-007 5.61395e-007 9.30677e-006 2.39852e-008 2.7143 8.18693 -0.20998 133.4 -26.3396 5.04194 9.87129 -1.06581e-014 9.53674e-007 -102.957 -1.76168 -0.595819 21.8657 -2.86102e-006 -9.53674e-007 60.4567 -9.70599 17.6099 11.0011 -3.8147e-006 5.72205e-006 24.832 0.14317 -0.875836 12.8798 0 7.10543e-015 35.4101 0.0065561 0.0193394 13.0642 3.8147e-006 0 -1.05272e-005 9.63344e-006 -1.38985e-006 6.51512 7.99896 -4.2909 123.208 -25.9902 14.8658 9.03709 9.53674e-007 -9.53674e-007 -101.916 2.39076 -2.89523 18.7638 3.55271e-015 -1.90735e-006 88.0187 -6.55094 12.9703 10.9666 7.62939e-006 9.53675e-007 25.6994 0.529614 -1.27945 10.8726 -3.81469e-006 -7.10543e-014 23.9895 0.0133956 -2.49497 11.2648 3.81469e-006 9.53675e-007 -9.54657e-006 9.9082e-007 -1.35465e-007 10.8127 7.82777 -6.29737 122.379 -3.37382 72.0364 8.91072 3.55271e-015 3.55271e-015 -107.782 -2.27285 1.56711 15.6024 -1.77636e-015 7.10543e-015 78.612 3.87427 0.756931 9.68174 -3.8147e-006 -4.583e-013 25.7642 0.244849 -12.1502 10.6982 -3.8147e-006 -8.88178e-015 41.1805 -4.11458 -0.737654 11.1504 -7.10543e-015 -1.90735e-006 7.64333e-007 9.35755e-006 -3.13889e-007 28.5502 2.54628 -3.93738 89.3519 -40.0101 53.4569 2.30267 7.10543e-015 0 -36.7177 -1.98214 6.05674 5.31894 3.55271e-015 6.57252e-014 -28.4933 -2.28304 -1.07055 9.71243 -9.53674e-007 3.57628e-007 -12.2893 -0.277441 9.40738 28.5502 -2.54612 -3.93738 90.1863 -39.3047 128.177 2.30268 -3.8147e-006 1.77636e-015 -34.6175 -3.94129 2.20595 5.31894 1.90735e-006 -4.76837e-007 -34.3908 4.34433 10.5458 9.71243 -7.15256e-007 -7.15256e-007 -11.8875 0.928771 11.2006 15.9737 8.03546 -8.36195 119.209 46.8181 -57.5956 16.8869 3.33786e-006 3.33786e-006 -95.4103 -7.06934 -32.554 8.42976 -3.8147e-006 -9.53675e-007 -83.105 -2.76324 10.0066 7.53864 -0.0312118 2.09083 -12.3177 -1.73023 21.7 14.7806 -6.70232 -9.44365 -45.113 -34.2904 -0.290555 19.9827 9.99201e-016 2.86102e-006 64.2026 0.322827 0.850225 17.4553 -5.72205e-006 -2.86102e-006 66.1333 10.4213 7.39161 13.3835 -2.22654 7.3982 8.79994 1.66326 15.899 
-12.9273 21.3797 0.217673 0.000617077 -0.00231363 29.996 -3.49325 -5.29384 0 148.229 -86.7259 108.499 10.8127 -7.82778 -6.29737 -109.258 40.5818 28.3324 8.91072 1.90735e-006 -3.9968e-015 70.556 0.584902 2.03073 15.6024 4.76837e-007 -4.76837e-007 -38.2987 -0.39702 10.0004 9.68174 -1.90735e-006 -1.90735e-006 -39.5316 -1.38194 -15.4303 10.6982 7.10543e-015 -9.53674e-007 -57.5981 4.11191 -2.72316 11.1504 3.8147e-006 -2.38419e-006 -2.79937e-007 3.59134e-006 6.73637e-009 6.5151 -7.99897 -4.2909 -151.7 40.8833 -9.06167 9.0371 3.55271e-015 -7.10543e-015 73.5177 -1.79416 -2.83819 18.7638 4.76837e-007 8.88178e-015 -54.1808 7.11546 12.8856 10.9666 -3.55271e-015 4.76837e-007 -28.2176 -0.492115 -1.44452 10.8726 0 1.24345e-014 -26.4782 -0.0150827 -2.66954 11.2648 -1.42109e-014 9.53674e-007 -6.12286e-007 1.88664e-006 1.52381e-006 2.71428 -8.18693 -0.209972 -166.076 51.3967 -17.9512 9.87129 -3.55271e-015 3.55271e-015 82.4836 2.04552 -0.84065 21.8657 -3.8147e-006 2.86102e-006 -72.8727 15.3613 32.3204 11.0012 -1.42108e-014 -9.53674e-007 -22.0954 -0.349846 -0.909223 12.8798 3.81469e-006 -7.62939e-006 -32.0881 -0.0177304 0.0365384 13.0642 -3.81469e-006 -9.53674e-007 5.61395e-007 9.30677e-006 2.39852e-008 2.7143 8.18693 -0.20998 135.171 -23.0318 8.33192 9.87129 -3.55271e-015 9.53674e-007 -105.831 -1.71517 -0.575573 21.8657 -2.86102e-006 -9.53674e-007 60.5067 -10.9808 17.4966 11.0011 -3.8147e-006 5.72205e-006 27.4522 0.0974837 -0.892036 12.8798 1.42109e-014 2.13163e-014 38.5593 -0.0028427 0.005836 13.0642 3.8147e-006 -1.06581e-014 -1.05272e-005 9.63344e-006 -1.38985e-006 6.51512 7.99896 -4.2909 121.615 -26.0878 14.4198 9.03709 9.53674e-007 -9.53674e-007 -102.206 2.39457 -2.88545 18.7638 3.55271e-015 -1.90735e-006 91.8204 -8.84643 18.584 10.9666 7.62939e-006 9.53675e-007 25.2976 0.532639 -1.25215 10.8726 -3.81469e-006 5.86198e-014 23.5961 0.0139876 -2.46465 11.2648 3.81469e-006 9.53674e-007 -9.54657e-006 9.90821e-007 9.88243e-006 10.8127 7.82777 -6.29737 126.117 2.55388 72.5651 8.91072 -1.77636e-015 0 -112.65 -2.49061 1.44104 15.6024 5.32907e-015 1.06581e-014 74.2573 5.7439 -1.02743 9.68174 -3.8147e-006 -2.2915e-013 27.123 0.359853 -12.4863 10.6982 -3.8147e-006 -1.77636e-015 42.812 -4.1151 -0.942095 11.1504 0 -1.90735e-006 7.64333e-007 9.35755e-006 -3.13889e-007 28.5502 2.54628 -3.93738 88.0861 -39.7262 51.32 2.30267 7.10543e-015 0 -36.7486 -3.65976 5.88178 5.31894 -3.55271e-015 7.28306e-014 -28.4892 -3.47894 -4.13256 9.71243 -9.53674e-007 3.57628e-007 -13.1714 0.639974 9.73488 28.5502 -2.54612 -3.93738 89.9913 -39.1146 127.729 2.30268 -3.8147e-006 7.99361e-015 -35.3763 -3.23453 1.88778 5.31894 1.90735e-006 -4.76837e-007 -36.2677 3.63801 8.88476 9.71243 -7.15256e-007 -7.15256e-007 -13.9955 0.439603 9.73377 15.9737 8.03546 -8.36195 119.412 46.7184 -57.5968 16.8869 3.33786e-006 3.33786e-006 -95.3336 -7.14032 -32.3708 8.42976 -3.8147e-006 -9.53675e-007 -82.987 -2.63798 10.1016 7.53864 -0.0312118 2.09083 -12.3121 -1.77065 21.8852 14.7806 -6.70232 -9.44365 -44.5179 -34.3363 -1.30705 19.9827 1.33227e-015 2.86102e-006 63.7637 1.97122 -0.221167 17.4553 -5.72205e-006 -2.86102e-006 65.1963 10.3833 6.89634 13.3835 -2.22654 7.3982 8.79977 1.66509 15.8777 
